<svg width="1728" height="652" viewBox="0 0 1728 652" fill="none" xmlns="http://www.w3.org/2000/svg">
<path d="M1821.91 367.542C1821.95 368.885 1821.98 370.234 1821.99 371.588L1820.99 371.598C1821 372.271 1821 372.946 1821 373.622C1821 374.285 1821 374.947 1820.99 375.609L1821.99 375.619C1821.98 376.95 1821.95 378.282 1821.91 379.613L1820.91 379.584C1820.87 380.909 1820.82 382.234 1820.76 383.559L1821.76 383.608C1821.69 384.938 1821.61 386.268 1821.52 387.599L1820.53 387.531C1820.44 388.852 1820.33 390.172 1820.22 391.493L1821.22 391.579C1821.1 392.906 1820.97 394.232 1820.83 395.558L1819.84 395.453C1819.7 396.773 1819.55 398.092 1819.39 399.411L1820.38 399.534C1820.21 400.853 1820.04 402.171 1819.85 403.488L1818.86 403.348C1818.68 404.659 1818.48 405.97 1818.27 407.281L1819.25 407.439C1819.04 408.755 1818.82 410.071 1818.58 411.385L1817.6 411.209C1817.37 412.512 1817.12 413.814 1816.87 415.115L1817.85 415.308C1817.59 416.613 1817.32 417.917 1817.04 419.22L1816.07 419.011C1815.79 420.308 1815.5 421.604 1815.2 422.899L1816.17 423.125C1815.87 424.422 1815.56 425.717 1815.23 427.01L1814.26 426.768C1813.94 428.052 1813.61 429.335 1813.27 430.616L1814.24 430.874C1813.89 432.161 1813.54 433.446 1813.17 434.729L1812.21 434.456C1811.85 435.732 1811.47 437.007 1811.09 438.28L1812.04 438.569C1811.66 439.841 1811.27 441.11 1810.86 442.378L1809.91 442.074C1809.5 443.337 1809.09 444.598 1808.67 445.857L1809.61 446.176C1809.19 447.44 1808.75 448.702 1808.31 449.962L1807.37 449.628C1806.92 450.876 1806.47 452.121 1806.01 453.364L1806.95 453.712C1806.49 454.959 1806.01 456.204 1805.53 457.447L1804.6 457.085C1804.12 458.323 1803.63 459.558 1803.13 460.792L1804.06 461.167C1803.56 462.4 1803.05 463.631 1802.53 464.859L1801.61 464.47C1801.09 465.69 1800.57 466.908 1800.03 468.123L1800.95 468.525C1800.41 469.744 1799.87 470.961 1799.32 472.175L1798.41 471.76C1797.85 472.968 1797.29 474.174 1796.72 475.377L1797.63 475.805C1797.06 477.005 1796.48 478.203 1795.9 479.398L1795 478.957C1794.41 480.148 1793.82 481.336 1793.22 482.521L1794.11 482.974C1793.51 484.163 1792.9 485.348 1792.27 486.531L1791.39 486.066C1790.77 487.239 1790.15 488.409 1789.52 489.576L1790.4 490.053C1789.76 491.222 1789.12 492.388 1788.47 493.551L1787.6 493.062C1786.95 494.221 1786.29 495.377 1785.63 496.529L1786.49 497.029C1785.83 498.182 1785.15 499.332 1784.47 500.479L1783.61 499.967C1782.93 501.106 1782.25 502.242 1781.56 503.374L1782.41 503.896C1781.71 505.032 1781.01 506.163 1780.3 507.292L1779.45 506.758C1778.74 507.883 1778.03 509.004 1777.3 510.121L1778.14 510.665C1777.42 511.78 1776.69 512.892 1775.95 514L1775.12 513.445C1774.38 514.549 1773.64 515.649 1772.89 516.746L1773.71 517.31C1772.96 518.41 1772.2 519.506 1771.43 520.597L1770.62 520.022C1769.85 521.108 1769.08 522.189 1768.31 523.267L1769.12 523.852C1768.34 524.931 1767.55 526.006 1766.76 527.076L1765.96 526.481C1765.16 527.548 1764.37 528.61 1763.56 529.669L1764.36 530.274C1763.55 531.335 1762.74 532.392 1761.92 533.444L1761.13 532.83C1760.32 533.876 1759.49 534.918 1758.67 535.955L1759.45 536.579C1758.62 537.619 1757.78 538.655 1756.93 539.686L1756.16 539.052C1755.32 540.08 1754.47 541.103 1753.62 542.121L1754.38 542.764C1753.53 543.784 1752.66 544.8 1751.79 545.81L1751.04 545.158C1750.17 546.164 1749.3 547.166 1748.42 548.163L1749.17 548.824C1748.29 549.823 1747.4 550.818 1746.51 551.807L1745.77 551.137C1744.88 552.124 1743.98 553.105 1743.08 554.081L1743.82 554.76C1742.91 555.737 1742 556.71 1741.09 557.678L1740.36 556.99C1739.45 557.955 1738.53 558.914 1737.6 559.868L1738.32 560.564C1737.39 561.52 1736.46 562.472 1735.52 563.417L1734.81 562.713C1733.88 563.656 1732.94 564.593 1731.99 565.524L1732.69 566.237C1731.74 567.172 1730.79 568.1 1729.83 569.023L1729.13 568.302C1728.17 569.222 1727.21 570.137 1726.24 571.046L1726.93 571.775C1725.96 572.686 1724.98 573.592 1724 574.492L1723.32 573.754C1722.34 574.652 1721.36 575.544 1720.37 576.429L1721.03 577.175C1720.04 578.063 1719.04 578.945 1718.04 579.821L1717.38 579.068C1716.38 579.941 1715.37 580.809 1714.36 581.67L1715.01 582.431C1714 583.295 1712.98 584.154 1711.95 585.006L1711.32 584.237C1710.29 585.086 1709.27 585.93 1708.24 586.767L1708.87 587.543C1707.83 588.383 1706.79 589.216 1705.75 590.042L1705.13 589.258C1704.09 590.082 1703.04 590.9 1701.99 591.711L1702.6 592.503C1701.55 593.318 1700.49 594.126 1699.42 594.928L1698.82 594.129C1697.76 594.928 1696.69 595.72 1695.62 596.506L1696.21 597.312C1695.14 598.1 1694.06 598.88 1692.98 599.654L1692.4 598.841C1691.32 599.614 1690.23 600.38 1689.14 601.139L1689.71 601.96C1688.62 602.722 1687.52 603.477 1686.42 604.224L1685.85 603.397C1684.76 604.142 1683.65 604.88 1682.55 605.61L1683.1 606.445C1681.98 607.179 1680.87 607.905 1679.75 608.624L1679.21 607.782C1678.09 608.501 1676.96 609.212 1675.84 609.915L1676.37 610.763C1675.24 611.469 1674.1 612.167 1672.96 612.857L1672.44 612.001C1671.31 612.689 1670.17 613.369 1669.03 614.041L1669.54 614.903C1668.39 615.58 1667.23 616.249 1666.08 616.91L1665.58 616.042C1664.42 616.701 1663.27 617.352 1662.11 617.995L1662.59 618.87C1661.42 619.515 1660.26 620.152 1659.08 620.781L1658.61 619.9C1657.44 620.528 1656.27 621.147 1655.09 621.759L1655.55 622.646C1654.37 623.261 1653.18 623.868 1651.99 624.466L1651.54 623.572C1650.35 624.168 1649.16 624.755 1647.97 625.333L1648.4 626.233C1647.21 626.814 1646.01 627.386 1644.8 627.949L1644.38 627.043C1643.17 627.608 1641.96 628.163 1640.75 628.709L1641.16 629.621C1639.95 630.169 1638.73 630.708 1637.51 631.238L1637.11 630.321C1635.89 630.849 1634.67 631.367 1633.45 631.877L1633.84 632.8C1632.6 633.314 1631.37 633.818 1630.13 634.312L1629.76 633.384C1628.53 633.878 1627.29 634.362 1626.05 634.837L1626.41 635.771C1625.17 636.247 1623.92 636.714 1622.67 637.171L1622.33 636.232C1621.08 636.688 1619.83 637.135 1618.58 637.571L1618.91 638.515C1617.65 638.955 1616.39 639.385 1615.12 639.805L1614.81 638.856C1613.55 639.275 1612.28 639.683 1611.02 640.081L1611.32 641.035C1610.05 641.435 1608.78 641.824 1607.51 642.203L1607.22 641.245C1605.95 641.624 1604.67 641.994 1603.39 642.353L1603.66 643.315C1602.38 643.676 1601.09 644.025 1599.8 644.364L1599.55 643.397C1598.26 643.735 1596.98 644.062 1595.7 644.378L1595.93 645.349C1594.64 645.668 1593.34 645.975 1592.04 646.272L1591.82 645.297C1590.53 645.593 1589.23 645.878 1587.93 646.152L1588.14 647.131C1586.83 647.406 1585.53 647.669 1584.22 647.922L1584.03 646.94C1582.73 647.192 1581.43 647.433 1580.12 647.662L1580.3 648.647C1578.98 648.878 1577.67 649.097 1576.35 649.305L1576.19 648.317C1574.88 648.524 1573.57 648.719 1572.26 648.902L1572.4 649.893C1571.08 650.077 1569.76 650.249 1568.44 650.41L1568.32 649.417C1567 649.578 1565.68 649.726 1564.36 649.863L1564.46 650.857C1563.14 650.994 1561.81 651.119 1560.49 651.232L1560.4 650.236C1559.08 650.348 1557.76 650.448 1556.44 650.536L1556.5 651.534C1555.17 651.622 1553.84 651.698 1552.51 651.761L1552.46 650.762C1551.14 650.825 1549.81 650.876 1548.49 650.914L1548.52 651.914C1547.19 651.952 1545.86 651.978 1544.52 651.99L1544.51 650.99C1543.85 650.997 1543.19 651 1542.53 651C1541.85 651 1541.18 650.997 1540.51 650.992L1540.51 651.992C1539.16 651.982 1537.82 651.961 1536.48 651.93L1536.5 650.93C1535.17 650.899 1533.83 650.858 1532.5 650.807L1532.47 651.806C1531.13 651.754 1529.79 651.692 1528.46 651.62L1528.51 650.622C1527.17 650.549 1525.84 650.466 1524.5 650.373L1524.43 651.371C1523.1 651.277 1521.76 651.174 1520.43 651.06L1520.51 650.064C1519.19 649.95 1517.86 649.826 1516.54 649.693L1516.44 650.687C1515.1 650.552 1513.76 650.406 1512.43 650.25L1512.55 649.257C1511.22 649.101 1509.9 648.936 1508.57 648.76L1508.44 649.751C1507.12 649.575 1505.79 649.388 1504.47 649.191L1504.62 648.202C1503.3 648.005 1501.97 647.797 1500.66 647.58L1500.49 648.566C1499.17 648.347 1497.85 648.118 1496.53 647.879L1496.71 646.895C1495.4 646.657 1494.09 646.409 1492.78 646.151L1492.59 647.132C1491.27 646.872 1489.96 646.601 1488.65 646.32L1488.86 645.342C1487.55 645.062 1486.25 644.772 1484.95 644.472L1484.72 645.446C1483.42 645.145 1482.11 644.833 1480.82 644.512L1481.06 643.541C1479.76 643.22 1478.47 642.889 1477.18 642.548L1476.92 643.514C1475.62 643.171 1474.33 642.818 1473.04 642.455L1473.31 641.492C1472.03 641.13 1470.75 640.759 1469.47 640.378L1469.18 641.336C1467.9 640.952 1466.62 640.558 1465.34 640.154L1465.64 639.201C1464.37 638.798 1463.1 638.385 1461.83 637.962L1461.51 638.911C1460.24 638.487 1458.98 638.053 1457.72 637.609L1458.05 636.666C1456.79 636.223 1455.53 635.77 1454.28 635.308L1453.93 636.246C1452.68 635.781 1451.42 635.306 1450.17 634.822L1450.53 633.89C1449.29 633.407 1448.05 632.915 1446.81 632.414L1446.44 633.34C1445.2 632.836 1443.96 632.322 1442.73 631.799L1443.12 630.879C1441.89 630.356 1440.66 629.824 1439.44 629.283L1439.04 630.197C1437.81 629.654 1436.59 629.101 1435.38 628.539L1435.8 627.631C1434.59 627.071 1433.38 626.501 1432.18 625.922L1431.74 626.823C1430.54 626.24 1429.33 625.648 1428.13 625.047L1428.58 624.153C1427.39 623.554 1426.2 622.946 1425.02 622.329L1424.56 623.216C1423.37 622.596 1422.19 621.967 1421.01 621.329L1421.49 620.45C1420.31 619.813 1419.14 619.167 1417.98 618.512L1417.49 619.383C1416.32 618.725 1415.16 618.059 1414 617.384L1414.51 616.52C1413.36 615.847 1412.21 615.165 1411.07 614.474L1410.55 615.33C1409.4 614.635 1408.26 613.931 1407.13 613.219L1407.66 612.372C1406.53 611.662 1405.4 610.944 1404.28 610.217L1403.74 611.056C1402.62 610.325 1401.5 609.587 1400.39 608.839L1400.95 608.01C1399.84 607.264 1398.73 606.51 1397.64 605.747L1397.07 606.568C1395.97 605.802 1394.87 605.028 1393.79 604.246L1394.37 603.434C1393.29 602.655 1392.21 601.867 1391.14 601.07L1390.54 601.873C1389.47 601.072 1388.4 600.263 1387.34 599.446L1387.95 598.653C1386.89 597.84 1385.84 597.018 1384.79 596.188L1384.17 596.97C1383.12 596.137 1382.08 595.295 1381.05 594.445L1381.68 593.672C1380.65 592.825 1379.62 591.969 1378.6 591.106L1377.96 591.869C1376.94 591.002 1375.92 590.128 1374.91 589.245L1375.57 588.493C1374.57 587.614 1373.57 586.727 1372.58 585.832L1371.91 586.574C1370.92 585.675 1369.93 584.768 1368.95 583.853L1369.63 583.122C1368.66 582.212 1367.69 581.293 1366.73 580.367L1366.03 581.087C1365.07 580.158 1364.11 579.22 1363.16 578.275L1363.87 577.566C1362.92 576.625 1361.98 575.676 1361.05 574.72L1360.33 575.417C1359.4 574.457 1358.47 573.49 1357.55 572.515L1358.28 571.829C1357.36 570.858 1356.46 569.88 1355.56 568.894L1354.82 569.569C1353.91 568.579 1353.02 567.582 1352.13 566.579L1352.88 565.916C1352 564.916 1351.12 563.91 1350.25 562.896L1349.49 563.546C1348.62 562.529 1347.76 561.504 1346.9 560.472L1347.67 559.834C1346.82 558.807 1345.98 557.772 1345.14 556.731L1344.36 557.357C1343.52 556.312 1342.69 555.26 1341.87 554.201L1342.66 553.588C1341.84 552.534 1341.03 551.473 1340.23 550.406L1339.43 551.006C1338.63 549.935 1337.83 548.857 1337.05 547.773L1337.85 547.185C1337.07 546.105 1336.3 545.019 1335.53 543.926L1334.71 544.501C1333.94 543.404 1333.18 542.301 1332.43 541.191L1333.26 540.63C1332.51 539.526 1331.77 538.416 1331.04 537.299L1330.2 537.847C1329.47 536.726 1328.74 535.598 1328.03 534.465L1328.87 533.931C1328.16 532.803 1327.45 531.669 1326.76 530.529L1325.91 531.049C1325.21 529.905 1324.52 528.756 1323.84 527.601L1324.7 527.094C1324.03 525.944 1323.36 524.787 1322.71 523.625L1321.83 524.117C1321.17 522.951 1320.52 521.779 1319.88 520.602L1320.76 520.124C1320.12 518.953 1319.5 517.776 1318.88 516.594L1317.99 517.058C1317.37 515.871 1316.76 514.678 1316.16 513.48L1317.05 513.031C1316.45 511.839 1315.86 510.642 1315.28 509.439L1314.38 509.873C1313.8 508.668 1313.22 507.458 1312.66 506.242L1313.57 505.822C1313.01 504.611 1312.46 503.395 1311.92 502.174L1311 502.579C1310.46 501.354 1309.93 500.124 1309.4 498.889L1310.33 498.499C1309.81 497.272 1309.3 496.04 1308.8 494.803L1307.87 495.178C1307.37 493.936 1306.87 492.689 1306.39 491.438L1307.32 491.078C1306.84 489.833 1306.37 488.583 1305.91 487.328L1304.98 487.673C1304.52 486.417 1304.06 485.157 1303.62 483.892L1304.57 483.563C1304.13 482.303 1303.7 481.039 1303.28 479.77L1302.33 480.083C1301.91 478.811 1301.5 477.534 1301.1 476.252L1302.06 475.955C1301.66 474.684 1301.28 473.408 1300.9 472.129L1299.94 472.41C1299.56 471.126 1299.2 469.837 1298.84 468.543L1299.8 468.277C1299.45 466.99 1299.1 465.699 1298.77 464.404L1297.8 464.654C1297.47 463.361 1297.14 462.063 1296.83 460.762L1297.8 460.527C1297.49 459.231 1297.19 457.931 1296.9 456.627L1295.92 456.845C1295.63 455.536 1295.35 454.224 1295.07 452.907L1296.05 452.705C1295.78 451.403 1295.53 450.097 1295.28 448.787L1294.3 448.973C1294.05 447.658 1293.81 446.34 1293.58 445.017L1294.57 444.848C1294.34 443.531 1294.12 442.21 1293.92 440.887L1292.93 441.04C1292.72 439.722 1292.53 438.4 1292.34 437.074L1293.34 436.937C1293.15 435.617 1292.98 434.294 1292.82 432.968L1291.82 433.089C1291.66 431.758 1291.51 430.423 1291.37 429.085L1292.36 428.98C1292.22 427.658 1292.09 426.333 1291.98 425.005L1290.98 425.093C1290.86 423.762 1290.75 422.427 1290.66 421.09L1291.65 421.017C1291.56 419.685 1291.47 418.35 1291.39 417.012L1290.4 417.068C1290.32 415.735 1290.26 414.398 1290.2 413.059L1291.2 413.019C1291.15 411.69 1291.1 410.358 1291.07 409.023L1290.07 409.047C1290.04 407.707 1290.02 406.365 1290.01 405.02L1291.01 405.012C1291 404.342 1291 403.671 1291 403C1291 402.329 1291 401.658 1291.01 400.988L1290.01 400.98C1290.02 399.635 1290.04 398.292 1290.07 396.952L1291.07 396.977C1291.1 395.642 1291.15 394.31 1291.2 392.981L1290.2 392.94C1290.26 391.601 1290.32 390.265 1290.4 388.931L1291.39 388.988C1291.47 387.65 1291.56 386.315 1291.65 384.983L1290.66 384.91C1290.75 383.573 1290.86 382.238 1290.98 380.906L1291.98 380.995C1292.09 379.667 1292.22 378.342 1292.36 377.02L1291.37 376.915C1291.51 375.577 1291.66 374.242 1291.82 372.911L1292.82 373.032C1292.98 371.706 1293.15 370.383 1293.34 369.063L1292.34 368.926C1292.53 367.6 1292.72 366.278 1292.93 364.96L1293.92 365.113C1294.12 363.789 1294.34 362.469 1294.57 361.152L1293.58 360.982C1293.81 359.66 1294.05 358.342 1294.3 357.027L1295.28 357.213C1295.53 355.903 1295.78 354.597 1296.05 353.295L1295.07 353.093C1295.35 351.776 1295.63 350.464 1295.92 349.155L1296.9 349.373C1297.19 348.069 1297.49 346.769 1297.8 345.473L1296.83 345.238C1297.14 343.937 1297.47 342.639 1297.8 341.346L1298.77 341.596C1299.1 340.301 1299.45 339.01 1299.8 337.723L1298.84 337.457C1299.2 336.163 1299.56 334.874 1299.94 333.589L1300.9 333.871C1301.28 332.592 1301.66 331.316 1302.06 330.045L1301.1 329.748C1301.5 328.466 1301.91 327.189 1302.33 325.917L1303.28 326.23C1303.7 324.961 1304.13 323.697 1304.57 322.437L1303.62 322.108C1304.06 320.843 1304.52 319.583 1304.98 318.327L1305.91 318.672C1306.37 317.417 1306.84 316.167 1307.32 314.922L1306.39 314.562C1306.87 313.311 1307.37 312.064 1307.87 310.822L1308.8 311.197C1309.3 309.96 1309.81 308.728 1310.33 307.501L1309.4 307.111C1309.93 305.876 1310.46 304.646 1311 303.421L1311.92 303.826C1312.46 302.605 1313.01 301.389 1313.57 300.178L1312.66 299.758C1313.22 298.542 1313.8 297.332 1314.38 296.127L1315.28 296.561C1315.86 295.359 1316.45 294.161 1317.05 292.969L1316.16 292.52C1316.76 291.322 1317.37 290.129 1317.99 288.942L1318.88 289.406C1319.5 288.224 1320.12 287.047 1320.76 285.877L1319.88 285.398C1320.52 284.221 1321.17 283.049 1321.83 281.883L1322.7 282.375C1323.36 281.213 1324.03 280.057 1324.7 278.906L1323.84 278.399C1324.52 277.244 1325.21 276.095 1325.91 274.951L1326.76 275.472C1327.45 274.331 1328.16 273.197 1328.87 272.069L1328.02 271.535C1328.74 270.402 1329.47 269.275 1330.2 268.153L1331.04 268.701C1331.77 267.585 1332.51 266.474 1333.26 265.37L1332.43 264.809C1333.18 263.7 1333.94 262.596 1334.71 261.5L1335.53 262.074C1336.3 260.981 1337.07 259.895 1337.85 258.815L1337.05 258.227C1337.83 257.143 1338.63 256.065 1339.43 254.994L1340.23 255.594C1341.03 254.527 1341.84 253.466 1342.66 252.412L1341.87 251.799C1342.69 250.74 1343.52 249.688 1344.36 248.643L1345.14 249.269C1345.98 248.228 1346.82 247.193 1347.67 246.166L1346.9 245.528C1347.76 244.496 1348.62 243.472 1349.49 242.454L1350.25 243.104C1351.12 242.09 1352 241.084 1352.88 240.084L1352.13 239.421C1353.02 238.418 1353.91 237.421 1354.82 236.432L1355.56 237.106C1356.46 236.121 1357.36 235.142 1358.28 234.171L1357.55 233.485C1358.47 232.511 1359.4 231.543 1360.33 230.583L1361.05 231.281C1361.98 230.324 1362.92 229.375 1363.87 228.434L1363.16 227.725C1364.11 226.78 1365.07 225.843 1366.03 224.913L1366.73 225.633C1367.69 224.707 1368.66 223.788 1369.63 222.878L1368.95 222.147C1369.93 221.232 1370.92 220.326 1371.91 219.427L1372.58 220.168C1373.57 219.274 1374.57 218.387 1375.57 217.507L1374.91 216.755C1375.92 215.873 1376.94 214.998 1377.96 214.131L1378.6 214.894C1379.62 214.031 1380.65 213.175 1381.68 212.328L1381.05 211.555C1382.08 210.705 1383.12 209.863 1384.17 209.03L1384.79 209.813C1385.84 208.983 1386.89 208.161 1387.95 207.347L1387.34 206.554C1388.4 205.737 1389.47 204.928 1390.54 204.128L1391.14 204.93C1392.21 204.134 1393.29 203.345 1394.37 202.566L1393.79 201.754C1394.87 200.972 1395.97 200.198 1397.07 199.432L1397.64 200.253C1398.73 199.49 1399.84 198.736 1400.95 197.991L1400.39 197.161C1401.5 196.414 1402.62 195.675 1403.74 194.945L1404.28 195.783C1405.4 195.056 1406.53 194.338 1407.66 193.628L1407.13 192.781C1408.26 192.069 1409.4 191.365 1410.55 190.67L1411.07 191.526C1412.21 190.835 1413.35 190.153 1414.51 189.48L1414 188.616C1415.16 187.941 1416.32 187.275 1417.49 186.617L1417.98 187.488C1419.14 186.833 1420.31 186.187 1421.49 185.55L1421.01 184.671C1422.19 184.033 1423.37 183.404 1424.56 182.784L1425.02 183.671C1426.2 183.054 1427.39 182.446 1428.58 181.847L1428.13 180.953C1429.33 180.352 1430.53 179.76 1431.74 179.177L1432.18 180.078C1433.38 179.499 1434.59 178.929 1435.8 178.369L1435.38 177.461C1436.59 176.899 1437.81 176.346 1439.04 175.803L1439.44 176.717C1440.66 176.176 1441.89 175.644 1443.12 175.121L1442.73 174.201C1443.96 173.678 1445.2 173.164 1446.44 172.66L1446.81 173.586C1448.05 173.085 1449.29 172.593 1450.53 172.11L1450.17 171.178C1451.42 170.694 1452.68 170.219 1453.93 169.754L1454.28 170.692C1455.53 170.23 1456.79 169.777 1458.05 169.334L1457.72 168.391C1458.98 167.947 1460.24 167.513 1461.52 167.089L1461.83 168.038C1463.1 167.615 1464.37 167.202 1465.64 166.799L1465.34 165.846C1466.62 165.442 1467.9 165.048 1469.18 164.664L1469.47 165.622C1470.75 165.241 1472.03 164.87 1473.31 164.508L1473.04 163.545C1474.33 163.182 1475.62 162.829 1476.92 162.486L1477.18 163.452C1478.47 163.111 1479.76 162.78 1481.06 162.459L1480.82 161.488C1482.11 161.167 1483.42 160.855 1484.72 160.554L1484.95 161.528C1486.25 161.228 1487.55 160.938 1488.86 160.658L1488.65 159.68C1489.96 159.399 1491.27 159.128 1492.59 158.868L1492.78 159.849C1494.09 159.591 1495.4 159.343 1496.71 159.104L1496.53 158.121C1497.85 157.882 1499.17 157.653 1500.49 157.434L1500.66 158.42C1501.97 158.203 1503.3 157.995 1504.62 157.798L1504.47 156.809C1505.79 156.612 1507.12 156.425 1508.44 156.249L1508.57 157.24C1509.9 157.064 1511.22 156.899 1512.55 156.743L1512.43 155.75C1513.76 155.594 1515.1 155.448 1516.44 155.313L1516.54 156.307C1517.86 156.174 1519.19 156.05 1520.51 155.936L1520.43 154.94C1521.76 154.826 1523.1 154.723 1524.44 154.629L1524.5 155.627C1525.84 155.534 1527.17 155.451 1528.51 155.378L1528.46 154.38C1529.79 154.308 1531.13 154.246 1532.47 154.194L1532.5 155.193C1533.83 155.142 1535.17 155.101 1536.5 155.07L1536.48 154.07C1537.82 154.039 1539.16 154.018 1540.51 154.008L1540.51 155.008C1541.18 155.003 1541.85 155 1542.53 155C1543.2 155 1543.87 155.002 1544.53 155.006L1544.54 154.006C1545.88 154.013 1547.23 154.029 1548.57 154.051L1548.55 155.051C1549.89 155.074 1551.23 155.104 1552.57 155.142L1552.6 154.142C1553.94 154.18 1555.28 154.226 1556.62 154.279L1556.58 155.278C1557.92 155.331 1559.26 155.391 1560.6 155.459L1560.65 154.46C1561.99 154.528 1563.33 154.604 1564.67 154.687L1564.61 155.685C1565.94 155.768 1567.28 155.858 1568.61 155.956L1568.69 154.959C1570.03 155.057 1571.37 155.162 1572.71 155.275L1572.62 156.272C1573.96 156.384 1575.29 156.505 1576.62 156.632L1576.72 155.637C1578.05 155.765 1579.39 155.9 1580.72 156.043L1580.62 157.037C1581.95 157.18 1583.28 157.33 1584.61 157.487L1584.73 156.494C1586.06 156.652 1587.4 156.817 1588.73 156.989L1588.6 157.981C1589.93 158.153 1591.25 158.333 1592.58 158.52L1592.72 157.529C1594.05 157.717 1595.38 157.912 1596.71 158.114L1596.55 159.103C1597.88 159.305 1599.2 159.514 1600.52 159.731L1600.69 158.744C1602.01 158.962 1603.34 159.186 1604.66 159.418L1604.48 160.403C1605.8 160.635 1607.12 160.874 1608.44 161.12L1608.62 160.137C1609.94 160.384 1611.26 160.639 1612.58 160.901L1612.38 161.882C1613.7 162.143 1615.01 162.412 1616.32 162.688L1616.52 161.709C1617.84 161.986 1619.15 162.27 1620.46 162.561L1620.24 163.537C1621.55 163.829 1622.86 164.128 1624.16 164.434L1624.39 163.46C1625.7 163.767 1627 164.082 1628.31 164.403L1628.07 165.374C1629.37 165.695 1630.66 166.023 1631.96 166.358L1632.21 165.39C1633.51 165.727 1634.81 166.072 1636.11 166.424L1635.84 167.389C1637.14 167.74 1638.43 168.099 1639.71 168.465L1639.99 167.503C1641.28 167.87 1642.57 168.244 1643.85 168.625L1643.57 169.584C1644.85 169.965 1646.14 170.354 1647.41 170.75L1647.71 169.795C1649 170.193 1650.28 170.598 1651.55 171.011L1651.25 171.962C1652.52 172.374 1653.79 172.792 1655.06 173.218L1655.38 172.27C1656.65 172.698 1657.92 173.134 1659.19 173.577L1658.86 174.521C1660.12 174.964 1661.39 175.414 1662.64 175.871L1662.99 174.931C1664.25 175.39 1665.51 175.856 1666.76 176.329L1666.41 177.264C1667.66 177.737 1668.91 178.218 1670.15 178.705L1670.52 177.774C1671.77 178.265 1673.02 178.763 1674.27 179.268L1673.89 180.195C1675.13 180.699 1676.37 181.21 1677.6 181.728L1677.99 180.807C1679.22 181.327 1680.46 181.856 1681.69 182.391L1681.29 183.308C1682.52 183.844 1683.74 184.388 1684.96 184.939L1685.38 184.028C1686.6 184.581 1687.82 185.141 1689.03 185.709L1688.61 186.615C1689.82 187.181 1691.03 187.754 1692.23 188.335L1692.67 187.435C1693.88 188.021 1695.09 188.615 1696.29 189.216L1695.84 190.11C1697.04 190.709 1698.23 191.316 1699.42 191.93L1699.88 191.041C1701.07 191.657 1702.26 192.28 1703.44 192.911L1702.97 193.793C1704.15 194.426 1705.33 195.066 1706.5 195.714L1706.99 194.839C1708.16 195.489 1709.33 196.146 1710.5 196.811L1710 197.679C1711.16 198.342 1712.32 199.012 1713.47 199.689L1713.98 198.827C1715.14 199.512 1716.29 200.204 1717.44 200.903L1716.92 201.757C1718.06 202.454 1719.2 203.159 1720.33 203.871L1720.87 203.024C1722 203.739 1723.13 204.46 1724.25 205.189L1723.71 206.028C1724.83 206.76 1725.95 207.499 1727.06 208.245L1727.62 207.415C1728.74 208.165 1729.85 208.923 1730.95 209.687L1730.38 210.509C1731.48 211.271 1732.57 212.04 1733.65 212.816L1734.23 212.004C1735.33 212.789 1736.41 213.581 1737.49 214.381L1736.9 215.185C1737.98 215.982 1739.04 216.787 1740.1 217.6L1740.71 216.806C1741.78 217.621 1742.83 218.444 1743.88 219.275L1743.26 220.059C1744.32 220.892 1745.36 221.732 1746.4 222.579L1747.03 221.806C1748.07 222.657 1749.1 223.517 1750.13 224.383L1749.48 225.147C1750.5 226.01 1751.51 226.88 1752.51 227.758L1753.17 227.006C1754.18 227.894 1755.19 228.789 1756.19 229.691L1755.51 230.432C1756.51 231.331 1757.49 232.238 1758.46 233.152L1759.15 232.423C1760.12 233.341 1761.09 234.266 1762.05 235.199L1761.36 235.916C1762.32 236.851 1763.27 237.793 1764.21 238.743L1764.92 238.039C1765.87 238.993 1766.81 239.954 1767.73 240.923L1767.01 241.615C1767.94 242.58 1768.85 243.552 1769.75 244.532L1770.49 243.854C1771.4 244.843 1772.3 245.84 1773.2 246.845L1772.45 247.509C1773.34 248.509 1774.22 249.516 1775.08 250.53L1775.84 249.88C1776.72 250.9 1777.58 251.928 1778.43 252.963L1777.66 253.598C1778.51 254.632 1779.35 255.673 1780.18 256.722L1780.96 256.101C1781.8 257.155 1782.62 258.216 1783.43 259.285L1782.63 259.89C1783.44 260.954 1784.24 262.025 1785.02 263.104L1785.83 262.515C1786.62 263.601 1787.4 264.695 1788.17 265.796L1787.35 266.369C1788.12 267.464 1788.87 268.568 1789.61 269.678L1790.45 269.122C1791.19 270.239 1791.93 271.362 1792.65 272.493L1791.81 273.032C1792.52 274.158 1793.23 275.291 1793.93 276.431L1794.78 275.911C1795.48 277.057 1796.17 278.211 1796.84 279.372L1795.98 279.874C1796.65 281.029 1797.31 282.19 1797.96 283.359L1798.83 282.874C1799.48 284.048 1800.12 285.23 1800.74 286.418L1799.86 286.884C1800.48 288.066 1801.09 289.255 1801.69 290.452L1802.58 290.005C1803.18 291.206 1803.77 292.413 1804.34 293.628L1803.44 294.055C1804 295.261 1804.56 296.474 1805.11 297.694L1806.02 297.287C1806.57 298.513 1807.1 299.747 1807.62 300.988L1806.7 301.375C1807.21 302.604 1807.72 303.84 1808.21 305.082L1809.14 304.716C1809.63 305.962 1810.11 307.216 1810.57 308.476L1809.63 308.823C1810.1 310.076 1810.55 311.337 1810.98 312.604L1811.93 312.278C1812.36 313.544 1812.78 314.816 1813.19 316.095L1812.24 316.4C1812.65 317.668 1813.04 318.944 1813.42 320.226L1814.38 319.942C1814.76 321.231 1815.12 322.527 1815.48 323.829L1814.51 324.091C1814.86 325.374 1815.19 326.663 1815.52 327.959L1816.49 327.718C1816.81 329.017 1817.12 330.322 1817.41 331.634L1816.44 331.854C1816.73 333.158 1817.01 334.469 1817.28 335.787L1818.26 335.589C1818.52 336.897 1818.77 338.212 1819.01 339.532L1818.02 339.709C1818.26 341.018 1818.48 342.334 1818.69 343.655L1819.68 343.5C1819.89 344.828 1820.08 346.163 1820.26 347.504L1819.27 347.638C1819.45 348.952 1819.61 350.273 1819.76 351.6L1820.76 351.487C1820.91 352.814 1821.05 354.147 1821.17 355.486L1820.17 355.578C1820.3 356.91 1820.41 358.248 1820.5 359.591L1821.5 359.52C1821.6 360.851 1821.68 362.188 1821.75 363.53L1820.75 363.58C1820.81 364.906 1820.87 366.236 1820.91 367.573L1821.91 367.542Z" stroke="#A60224" stroke-width="2" stroke-dasharray="4 4"/>
<path d="M0 0H1119C1339.91 0 1519 179.086 1519 400V598H0V0Z" fill="#EDCCD3"/>
</svg>
